# xmcd
#
# Track frame offsets:
#	150
#	17646
#	37413
#	52038
#	67734
#	89575
#	106045
#	125542
#	146808
#	171101
#	190194
#	209504
#	228725
#	251833
#	264600
#	285402
#
# Disc length: 4045 seconds
#
# Revision: 0
# Processed by: cddbd v1.5.2PL0 Copyright (c) Steve Scherf et al.
# Submitted via: EZCDAudioConverter 1.2.3.1
#
DISCID=f30fcb10
DTITLE=潘源良是誰最愛作品選
DYEAR=1900
DGENRE=
TTITLE0=譚詠麟 - 愛情陷阱
TTITLE1=葉德嫻 - 不再分離
TTITLE2=林子祥 - 數字人生
TTITLE3=林子祥 - 最愛是誰
TTITLE4=徐小鳳 - 婚紗背後
TTITLE5=何嘉麗 - 無情者有情人
TTITLE6=林姍姍 - 也許當時年紀少
TTITLE7=葉蒨文 - 遺忘了
TTITLE8=達明一派 - 今天應該很高興
TTITLE9=達明一派 - 十個救火的少年
TTITLE10=關淑怡 - 夜迷宮
TTITLE11=陳慧嫻 - 七分愛情三分騙
TTITLE12=王菲 - 把鎖匙投進信箱
TTITLE13=張學友 - 偷閒加油站
TTITLE14=王菲 - 季候風
TTITLE15=葉玉卿 - 男人是否都一樣
EXTD=
EXTT0=
EXTT1=
EXTT2=
EXTT3=
EXTT4=
EXTT5=
EXTT6=
EXTT7=
EXTT8=
EXTT9=
EXTT10=
EXTT11=
EXTT12=
EXTT13=
EXTT14=
EXTT15=
PLAYORDER=
